{"title":"The.Amazing.Race.Asia.S04E07-LCP.avi","uid":5934216,"size":369340112,"categoryP":"video","categoryS":"tv_shows","magnet":"?xt=urn:btih:15fcaf53bb7e4119286184e102a63a20d1a0aad2&amp;dn=The.Amazing.Race.Asia.S04E07-LCP.avi&amp;tr=udp%3A%2F%2Ftracker.openbittorrent.com%3A80&amp;tr=udp%3A%2F%2Fopen.demonii.com%3A1337&amp;tr=udp%3A%2F%2Ftracker.coppersurfer.tk%3A6969&amp;tr=udp%3A%2F%2Fexodus.desync.com%3A6969","seeders":0,"leechers":0,"uploader":"LCP-1","files":1,"time":1288894707,"description":"Enjoy! This has a preview of next episode S04E08 at the end.\n\nVideo\nFormat                           : MPEG-4 Visual\nCodec ID                         : XVID\nDuration                         : 47mn 49s\nBit rate                         : 921 Kbps\nWidth                            : 624 pixels\nHeight                           : 352 pixels\nDisplay aspect ratio             : 16:9\nFrame rate                       : 25.000 fps\nBits/(Pixel*Frame)               : 0.168\nStream size                      : 315 MiB (89%)\n\nAudio\nFormat                           : MPEG Audio\nFormat profile                   : Layer 3\nMode                             : Joint stereo\nCodec ID/Hint                    : MP3\nDuration                         : 47mn 49s\nBit rate mode                    : Constant\nBit rate                         : 96.0 Kbps\nChannel(s)                       : 2 channels\nSampling rate                    : 48.0 KHz\nBit depth                        : 16 bits\nStream size                      : 32.8 MiB (9%)\n","torrent":{"xt":"urn:btih:15fcaf53bb7e4119286184e102a63a20d1a0aad2","amp;dn":"The.Amazing.Race.Asia.S04E07-LCP.avi","amp;tr":["udp%3A%2F%2Ftracker.openbittorrent.com%3A80","udp%3A%2F%2Fopen.demonii.com%3A1337","udp%3A%2F%2Ftracker.coppersurfer.tk%3A6969","udp%3A%2F%2Fexodus.desync.com%3A6969"],"infoHash":"15fcaf53bb7e4119286184e102a63a20d1a0aad2","infoHashBuffer":{"type":"Buffer","data":[21,252,175,83,187,126,65,25,40,97,132,225,2,166,58,32,209,160,170,210]},"announce":[],"urlList":[]}}